# File created by Blade
# Date/Time:  Wed Jan 21 16:09:38 2015
# Frame Rate: 120.000 fps
#------------------------------------------------------
:FULLY-SPECIFIED
:DEGREES
899
root 19.559737 34.980276 -23.752379 -177.858695 -0.014611 -177.326632
Spine -13.021212 -0.153500 3.672300
Head 8.993964 -3.404207 -0.717415
LeftShoulder -14.745879 -33.050308 17.522872
LeftArm 9.104970 7.889563 -12.169921
LeftForeArm 9.873193 -0.000000 -2.469587
LeftHand -8.601785 -0.000000 -2.585235
LeftHandThumb1 -26.253704 0.000000 33.147579
RightShoulder -12.907444 -4.471592 -9.714510
RightArm 12.511943 40.874787 17.063298
RightForeArm -32.539593 -0.000000 4.222924
RightHand -11.024430 -0.000000 2.383529
RightHandThumb1 -24.326973 -0.000000 -32.862282
LeftUpLeg 9.408963 0.254754 8.328054
LeftLeg -13.902371 -0.000000 0.000000
LeftFoot -0.951822 21.846706 10.512346
LeftToeBase -139.130547 -0.000000 0.000000
RightUpLeg 7.777830 -9.005738 -3.448493
RightLeg -3.855786 -0.000000 0.000000
RightFoot -21.666883 -20.804768 17.637060
RightToeBase 24.248590 -0.000000 -0.000000
900
root 19.543347 34.978692 -23.763286 -177.875862 -0.060986 -177.356307
Spine -13.014799 -0.190518 3.666021
Head 8.961402 -3.382230 -0.727818
LeftShoulder -14.733718 -33.048663 17.513521
LeftArm 9.117609 7.888760 -12.169260
LeftForeArm 9.887477 -0.000000 -2.465556
LeftHand -8.596431 0.000000 -2.609540
LeftHandThumb1 -26.253704 0.000000 33.147579
RightShoulder -12.916239 -4.470806 -9.721437
RightArm 12.500457 40.849227 17.022423
RightForeArm -32.546500 -0.000000 4.232384
RightHand -11.002451 -0.000000 2.465260
RightHandThumb1 -24.326973 -0.000000 -32.862282
LeftUpLeg 9.443265 0.235526 8.276396
LeftLeg -13.924007 -0.000000 0.000000
LeftFoot -0.980302 21.817203 10.532067
LeftToeBase -139.140324 -0.000000 0.000000
RightUpLeg 7.806594 -9.097412 -3.510969
RightLeg -3.832696 -0.000000 0.000000
RightFoot -21.675103 -20.763321 17.705015
RightToeBase 24.326461 -0.000000 -0.000000
901
root 19.527181 34.977249 -23.773229 -177.891273 -0.081409 -177.387972
Spine -13.006559 -0.208843 3.658004
Head 8.937638 -3.328489 -0.747778
LeftShoulder -14.730643 -33.023572 17.505078
LeftArm 9.142786 7.821392 -12.176566
LeftForeArm 9.923501 -0.000000 -2.486939
LeftHand -8.520570 0.000000 -2.658248
LeftHandThumb1 -26.253704 0.000000 33.147579
RightShoulder -12.902383 -4.454627 -9.747760
RightArm 12.452136 40.815828 16.985953
RightForeArm -32.588107 -0.000000 4.263522
RightHand -10.962741 -0.000000 2.478246
RightHandThumb1 -24.326973 -0.000000 -32.862282
LeftUpLeg 9.481151 0.260249 8.220792
LeftLeg -13.950765 -0.000000 0.000000
LeftFoot -0.994746 21.784741 10.518462
LeftToeBase -139.184129 -0.000000 0.000000
RightUpLeg 7.822269 -9.151560 -3.569451
RightLeg -3.796462 -0.000000 0.000000
RightFoot -21.705757 -20.808021 17.604307
RightToeBase 24.296926 -0.000000 -0.000000
902
root 19.513741 34.975815 -23.783054 -177.904547 -0.098048 -177.406086
Spine -12.993042 -0.220543 3.656758
Head 8.873496 -3.277303 -0.736852
LeftShoulder -14.739960 -33.006443 17.518370
LeftArm 9.166224 7.798239 -12.195827
LeftForeArm 9.908734 -0.000000 -2.484878
LeftHand -8.554788 -0.000000 -2.651996
LeftHandThumb1 -26.253704 0.000000 33.147579
RightShoulder -12.880996 -4.445853 -9.754796
RightArm 12.372583 40.752337 16.897735
RightForeArm -32.532381 -0.000000 4.271245
RightHand -10.884533 -0.000000 2.465027
RightHandThumb1 -24.326973 -0.000000 -32.862282
LeftUpLeg 9.521455 0.268102 8.185930
LeftLeg -13.979597 -0.000000 0.000000
LeftFoot -1.011332 21.748816 10.516992
LeftToeBase -139.180335 -0.000000 0.000000
RightUpLeg 7.841863 -9.207948 -3.619159
RightLeg -3.771219 -0.000000 0.000000
RightFoot -21.720570 -20.773652 17.615646
RightToeBase 24.531074 -0.000000 -0.000000
903
root 19.500399 34.974033 -23.789928 -177.898158 -0.069349 -177.424420
Spine -13.000994 -0.180112 3.657839
Head 8.851507 -3.228809 -0.773541
LeftShoulder -14.726516 -32.976059 17.511188
LeftArm 9.170870 7.745716 -12.212167
LeftForeArm 9.889995 0.000000 -2.463392
LeftHand -8.617161 -0.000000 -2.582666
LeftHandThumb1 -26.253704 0.000000 33.147579
RightShoulder -12.887616 -4.464062 -9.774132
RightArm 12.363246 40.718424 16.876263
RightForeArm -32.515265 -0.000000 4.266405
RightHand -10.876888 -0.000000 2.447955
RightHandThumb1 -24.326973 -0.000000 -32.862282
LeftUpLeg 9.547821 0.337989 8.149680
LeftLeg -14.006315 -0.000000 0.000000
LeftFoot -1.050345 21.704663 10.530925
LeftToeBase -139.189560 -0.000000 0.000000
RightUpLeg 7.820000 -9.203380 -3.657015
RightLeg -3.731704 -0.000000 0.000000
RightFoot -21.746445 -20.784103 17.581143
RightToeBase 24.324535 -0.000000 -0.000000
904
root 19.486328 34.973058 -23.798897 -177.898121 -0.065510 -177.440234
Spine -13.005418 -0.157473 3.667926
Head 8.796565 -3.193045 -0.788480
LeftShoulder -14.711933 -32.961985 17.500340
LeftArm 9.185639 7.804921 -12.214771
LeftForeArm 9.805211 -0.000000 -2.464807
LeftHand -8.666856 -0.000000 -2.576374
LeftHandThumb1 -26.253704 0.000000 33.147579
RightShoulder -12.899348 -4.492837 -9.778890
RightArm 12.343461 40.672488 16.813002
RightForeArm -32.542873 0.000000 4.261272
RightHand -10.962999 -0.000000 2.483468
RightHandThumb1 -24.326973 -0.000000 -32.862282
LeftUpLeg 9.571862 0.402261 8.113543
LeftLeg -14.025374 -0.000000 0.000000
LeftFoot -1.068273 21.645785 10.533855
LeftToeBase -139.238875 -0.000000 0.000000
RightUpLeg 7.819438 -9.227603 -3.695178
RightLeg -3.708758 -0.000000 0.000000
RightFoot -21.750426 -20.787042 17.597411
RightToeBase 24.268279 -0.000000 -0.000000
905
root 19.472517 34.972246 -23.806333 -177.886192 -0.086471 -177.460717
Spine -13.022582 -0.141727 3.667580
Head 8.758530 -3.170656 -0.818602
LeftShoulder -14.678676 -32.972358 17.485245
LeftArm 9.188047 7.813896 -12.226430
LeftForeArm 9.809532 -0.000000 -2.460296
LeftHand -8.677877 -0.000000 -2.555430
LeftHandThumb1 -26.253704 0.000000 33.147579
RightShoulder -12.936254 -4.534075 -9.780343
RightArm 12.337961 40.620994 16.761533
RightForeArm -32.543805 -0.000000 4.254483
RightHand -10.944352 -0.000000 2.545025
RightHandThumb1 -24.326973 -0.000000 -32.862282
LeftUpLeg 9.575458 0.435696 8.073779
LeftLeg -14.045317 -0.000000 0.000000
LeftFoot -1.091274 21.599494 10.530558
LeftToeBase -139.256624 -0.000000 0.000000
RightUpLeg 7.810076 -9.294741 -3.738971
RightLeg -3.688546 -0.000000 0.000000
RightFoot -21.757811 -20.778629 17.577723
RightToeBase 24.301163 -0.000000 -0.000000
906
root 19.458023 34.971558 -23.814343 -177.879957 -0.095522 -177.482000
Spine -13.039704 -0.151540 3.683626
Head 8.750925 -3.126463 -0.890925
LeftShoulder -14.660049 -32.984622 17.467403
LeftArm 9.159633 7.874385 -12.210040
LeftForeArm 9.794345 0.000000 -2.462300
LeftHand -8.646432 0.000000 -2.520604
LeftHandThumb1 -26.253704 0.000000 33.147579
RightShoulder -12.941803 -4.579505 -9.782485
RightArm 12.370541 40.587873 16.720681
RightForeArm -32.531021 -0.000000 4.218806
RightHand -10.915263 0.000000 2.505714
RightHandThumb1 -24.326973 -0.000000 -32.862282
LeftUpLeg 9.584898 0.453140 8.032576
LeftLeg -14.055907 -0.000000 0.000000
LeftFoot -1.122367 21.571562 10.522070
LeftToeBase -139.271429 -0.000000 0.000000
RightUpLeg 7.809305 -9.329564 -3.783677
RightLeg -3.672748 -0.000000 0.000000
RightFoot -21.758009 -20.780683 17.563225
RightToeBase 24.338359 -0.000000 -0.000000
907
root 19.444507 34.971089 -23.820710 -177.862891 -0.096458 -177.503004
Spine -13.062400 -0.143809 3.689931
Head 8.713524 -3.088030 -0.925796
LeftShoulder -14.648562 -32.981552 17.465506
LeftArm 9.139715 7.877263 -12.222741
LeftForeArm 9.777715 -0.000000 -2.447746
LeftHand -8.671944 -0.000000 -2.517696
LeftHandThumb1 -26.253704 0.000000 33.147579
RightShoulder -12.964219 -4.628290 -9.770303
RightArm 12.407222 40.524776 16.667257
RightForeArm -32.478542 0.000000 4.182770
RightHand -10.891091 -0.000000 2.485344
RightHandThumb1 -24.326973 -0.000000 -32.862282
LeftUpLeg 9.580825 0.497555 7.992805
LeftLeg -14.059259 -0.000000 0.000000
LeftFoot -1.152262 21.521380 10.535470
LeftToeBase -139.290671 -0.000000 0.000000
RightUpLeg 7.790277 -9.353581 -3.825062
RightLeg -3.651872 -0.000000 0.000000
RightFoot -21.768848 -20.779902 17.582752
RightToeBase 24.317052 -0.000000 -0.000000
908
root 19.431363 34.970762 -23.826516 -177.844053 -0.093972 -177.525607
Spine -13.086651 -0.141431 3.692440
Head 8.681828 -3.047889 -0.955009
LeftShoulder -14.638493 -32.990416 17.462650
LeftArm 9.120915 7.910624 -12.215864
LeftForeArm 9.772932 -0.000000 -2.449899
LeftHand -8.698247 -0.000000 -2.517753
LeftHandThumb1 -26.253704 0.000000 33.147579
RightShoulder -12.973400 -4.642795 -9.771502
RightArm 12.423136 40.476100 16.626398
RightForeArm -32.511610 0.000000 4.181946
RightHand -10.902248 -0.000000 2.509501
RightHandThumb1 -24.326973 -0.000000 -32.862282
LeftUpLeg 9.570997 0.516241 7.951661
LeftLeg -14.057132 -0.000000 0.000000
LeftFoot -1.172623 21.502507 10.545167
LeftToeBase -139.318002 -0.000000 0.000000
RightUpLeg 7.768274 -9.378210 -3.865219
RightLeg -3.631501 -0.000000 0.000000
RightFoot -21.779397 -20.779073 17.590478
RightToeBase 24.259329 -0.000000 -0.000000
909
root 19.417989 34.970563 -23.832131 -177.818083 -0.084642 -177.545482
Spine -13.116499 -0.139644 3.699467
Head 8.641698 -2.989962 -0.971762
LeftShoulder -14.644834 -32.990697 17.466994
LeftArm 9.108095 7.906427 -12.214467
LeftForeArm 9.783249 -0.000000 -2.455652
LeftHand -8.684528 -0.000000 -2.553966
LeftHandThumb1 -26.253704 0.000000 33.147579
RightShoulder -12.922037 -4.636462 -9.800733
RightArm 12.305914 40.424924 16.549976
RightForeArm -32.516509 0.000000 4.257824
RightHand -10.898536 -0.000000 2.544585
RightHandThumb1 -24.326973 -0.000000 -32.862282
LeftUpLeg 9.553650 0.538947 7.911364
LeftLeg -14.050365 -0.000000 0.000000
LeftFoot -1.186672 21.492798 10.565128
LeftToeBase -139.303927 -0.000000 0.000000
RightUpLeg 7.730564 -9.416735 -3.906252
RightLeg -3.601271 -0.000000 0.000000
RightFoot -21.754352 -20.728246 17.627919
RightToeBase 24.134949 -0.000000 -0.000000
